# xmcd CD database file generated by Grip 3.3.1
# 
# Track frame offsets:
#       150
#       29504
#       51685
#       72761
#       93588
#       107572
#       129746
#       153838
#       171388
#       188945
#       211721
#       233510
# 
# Disc length: 3457 seconds
# 
# Revision: 1
# Processed by: cddbd v1.5.2PL0 Copyright (c) Steve Scherf et al.
# Submitted via: Grip 3.3.1
# 
DISCID=a50d7f0c
DTITLE=Various Artist - ThriveMix Presents Dance Anthems [CD1)
DYEAR=2007
DGENRE=Disco
TTITLE0=Christina Aguilera - Hurt (Deeper-Mindset Full On Club Mix)
TTITLE1=Hillary Duff - With Love (Richard Vission Vs Dave Aude Club Mix)
TTITLE2=Diddy Featuring Nicole Scherzinger - Come To Me (E-Smoove House M
TTITLE2=ix)
TTITLE3=Nelly Furtado - Promiscuous (Ralphi's Dirty Vocal)
TTITLE4=Pink - Stupid Girls (Hani's Stupid Remix)
TTITLE5=Camille Jones - Creeps (Fredde Le Grand Remix)
TTITLE6=Danity Kane - Show Stopper (Dave Aude Club Mix)
TTITLE7=Nick Lachey - What's Left Of Me (The Passengerz Remix Radio Edit)
TTITLE8=Natasha Bedingfield - The One That Got Away (Valentin Radio Mix)
TTITLE9=Jewel - Intuition (Gabriel And Dresden Hi-Tek Digital Mix)
TTITLE10=Paris Hilton - Stars Are Blind (Tracy Does Paris Club Mix)
TTITLE11=Cascada - Truly Madly Deeply (Thomas Gold Remix)
EXTD=
EXTT0=
EXTT1=
EXTT2=
EXTT3=
EXTT4=
EXTT5=
EXTT6=
EXTT7=
EXTT8=
EXTT9=
EXTT10=
EXTT11=
PLAYORDER=
